SplineFontDB: 3.0
FontName: SlabMediaeval
FullName: Slab Mediaeval
FamilyName: Slab Mediaeval
Weight: Regular
Copyright: Copyright (c) 2009 Barry Schwartz
UComments: "Guide images: Cut 6400-dpi samples to 1000 pixels high, and scale them to 95%.+AAoACgAA-Set font size to 12 points to get approximately the original type size." 
Version: 001.000
ItalicAngle: 0
UnderlinePosition: -215
UnderlineWidth: 107
Ascent: 1644
Descent: 512
LayerCount: 4
Layer: 0 0 "Back"  1
Layer: 1 0 "Fore"  0
Layer: 2 0 "backup"  0
Layer: 3 0 "needsredraw"  0
NeedsXUIDChange: 1
XUID: [1021 658 797806517 4575759]
FSType: 0
OS2Version: 0
OS2_WeightWidthSlopeOnly: 0
OS2_UseTypoMetrics: 1
CreationTime: 1252134725
ModificationTime: 1252653756
OS2TypoAscent: 0
OS2TypoAOffset: 1
OS2TypoDescent: 0
OS2TypoDOffset: 1
OS2TypoLinegap: 194
OS2WinAscent: 0
OS2WinAOffset: 1
OS2WinDescent: 0
OS2WinDOffset: 1
HheadAscent: 0
HheadAOffset: 1
HheadDescent: 0
HheadDOffset: 1
DEI: 91125
Encoding: UnicodeBmp
UnicodeInterp: none
NameList: Adobe Glyph List
DisplaySize: -72
AntiAlias: 1
FitToEm: 1
WinInfo: 32 8 7
BeginPrivate: 9
BlueValues 26 [-59 2 956 1008 1391 1472]
OtherBlues 11 [-460 -439]
BlueScale 9 0.0122222
BlueFuzz 1 0
BlueShift 1 7
StdVW 5 [195]
StemSnapV 9 [195 210]
StdHW 4 [90]
StemSnapH 8 [90 100]
EndPrivate
Grid
-1272.20019531 -448 m 1
 2702.20019531 -448 l 1
-1272.20019531 -358 m 1
 2702.20019531 -358 l 1
-1022 100 m 1
 2647 100 l 1
2647 1311 m 1
 -1022 1311 l 1
 2647 1311 l 1
2650 1411 m 1
 -1019 1411 l 1
 2650 1411 l 1
-1022 90 m 1
 2647 90 l 1
-1019 1355 m 1
 2650 1355 l 1
-1019 1445 m 1
 2650 1445 l 1
-1022 866 m 1
 2647 866 l 1
-1022 956 m 1
 2647 956 l 1
EndSplineSet
BeginChars: 65537 78

StartChar: a
Encoding: 97 97 0
Width: 1034
VWidth: 2048
Flags: W
HStem: -29 158<285.312 472.423> -13 21G<731 800.5> 542 81<492.005 646> 851 132<335.732 607.568>
VStem: 51 190<173.724 407.234> 646 194<183.58 542 614.92 806.868>
LayerCount: 4
Fore
SplineSet
241 291 m 0xbc
 241 169 327 129 434 129 c 0
 556 129 646 221 646 221 c 1
 646 542 l 1
 409 487 241 446 241 291 c 0xbc
51 255 m 0
 51 563 356 563 651 623 c 1
 651 690 l 2
 651 759 629 851 448 851 c 0
 350 851 246 759 204 729 c 1
 144 793 l 1
 354 967 l 1
 354 967 425 983 490 983 c 0
 636 983 840 934 840 717 c 2
 840 253 l 2
 840 174 841 127 876 127 c 0
 887 127 903 133 922 145 c 2
 975 178 l 1
 1015 114 l 1
 823 -9 l 1
 814 -12 806 -13 795 -13 c 0x7c
 667 -13 656 86 649 137 c 1
 446 -24 l 1
 446 -24 416 -29 348 -29 c 0
 110 -29 51 112 51 255 c 0
EndSplineSet
Validated: 1
Layer: 2
SplineSet
241 291 m 4
 241 169 327 129 434 129 c 4
 556 129 646 221 646 221 c 5
 646 542 l 5
 409 487 241 446 241 291 c 4
922 141 m 6
 959 164 l 6
 970 171 980 179 997 154 c 4
 1004 144 1011 132 1011 119 c 4
 1011 105 995 96 983 88 c 4
 850 1 835 -13 795 -13 c 4
 667 -13 656 86 649 137 c 5
 528 34 l 6
 471 -15 469 -19 426 -24 c 4
 402 -27 376 -29 348 -29 c 4
 247 -29 133 -3 81 104 c 4
 67 133 51 190 51 255 c 4
 51 400 118 498 288 549 c 4
 390 580 651 623 651 623 c 5
 651 690 l 6
 651 759 629 851 448 851 c 4
 381 851 295 802 248 761 c 4
 229 745 220 734 209 734 c 4
 197 734 151 778 151 792 c 4
 151 804 168 813 200 840 c 6
 353 968 l 5
 353 968 435 983 490 983 c 4
 636 983 841 934 841 717 c 4
 841 535 840 409 840 322 c 6
 840 253 l 6
 840 174 841 125 876 125 c 4
 887 125 902.614701996 128.949679619 922 141 c 6
EndSplineSet
EndChar

StartChar: b
Encoding: 98 98 1
Width: 1153
VWidth: 2048
Flags: MW
HStem: -35 129<462.032 743.361> 850 158<561.286 736.101> 1357 88<15 172.038>
VStem: 189 195<167.786 816.266 885 1356.91> 893 202<308.721 670.321>
LayerCount: 4
Fore
SplineSet
175 1357 m 1
 15 1352 l 1
 11 1445 l 1
 54 1445 l 2
 224 1445 399 1468 399 1468 c 1
 386 885 l 1
 621 1007 l 1
 621 1007 637 1008 642 1008 c 0
 944 1000 1095 810 1095 569 c 0
 1095 486 1082 406 1051 317 c 0
 1016 214 934 143 852 82 c 0
 754 8 674 -35 555 -35 c 0
 392 -35 340 49 236 49 c 0
 192 49 184 62 184 62 c 1
 184 62 189 562 189 756 c 2
 189 834 l 2
 189 1230 175 1357 175 1357 c 1
591 850 m 0
 506 850 384 799 384 799 c 1
 384 297 l 2
 384 158 502 94 619 94 c 0
 849 94 893 343 893 467 c 0
 893 696 747 850 591 850 c 0
EndSplineSet
Validated: 1
Layer: 2
SplineSet
189 756 m 2
 189 834 l 2
 189 1090 182 1161 181 1226 c 0
 180 1314 171 1355 171 1355 c 1
 115 1355 75 1352 30 1352 c 0
 14 1352 13 1383 13 1412 c 2
 13 1422 l 2
 13 1445 19 1445 54 1445 c 0
 106 1445 262 1449 385 1468 c 1
 399 1453 l 1
 386 885 l 1
 625 1008 l 1
 933 1008 1095 819 1095 562 c 0
 1095 485 1080 402 1051 317 c 0
 1015 214 934 143 852 82 c 0
 754 8 674 -35 555 -35 c 0
 392 -35 340 49 236 49 c 0
 192 49 184 52 184 82 c 2
 184 82 189 562 189 756 c 2
591 850 m 0
 506 850 384 799 384 799 c 1
 384 297 l 2
 384 158 502 94 619 94 c 0
 849 94 893 343 893 467 c 0
 893 696 747 850 591 850 c 0
EndSplineSet
EndChar

StartChar: c
Encoding: 99 99 2
Width: 1028
VWidth: 2048
Flags: W
HStem: -34 141<433.103 710.537> 867 121<413.322 687.421>
VStem: 65 193<294.18 645.375> 728 188<657.167 827.465>
LayerCount: 4
Fore
SplineSet
956 198 m 1
 765 -3 604 -34 516 -34 c 0
 262 -34 65 112 65 413 c 0
 65 581 120 721 264 837 c 0
 383 933 471 988 595 988 c 0
 739 988 916 921 916 767 c 0
 916 701 873 616 777 616 c 0
 735 616 706 644 706 660 c 0
 706 676 728 703 728 738 c 0
 728 812 655 867 553 867 c 0
 364 867 258 680 258 492 c 0
 258 299 369 107 616 107 c 0
 740 107 809 176 908 254 c 1
 956 198 l 1
EndSplineSet
Validated: 1
EndChar

StartChar: d
Encoding: 100 100 3
Width: 1197
VWidth: 2048
Flags: W
HStem: -36 145<426.693 624.477> 0 90<977 1157> 862 124<449.371 722.066> 1354 98<597 767.889>
VStem: 80 189<274.747 654.518> 782 195<147.197 806.233 946 1089.79>
LayerCount: 4
Fore
SplineSet
720 1452 m 0xbc
 898 1459 994 1474 994 1474 c 1
 994 1474 977 1338 977 541 c 2
 977 90 l 1
 1158 90 l 1
 1157 0 l 1
 782 0 l 1x7c
 782 88 l 1
 588 -32 l 1
 588 -32 579 -36 517 -36 c 0
 307 -36 80 72 80 422 c 0
 80 630 181 774 234 817 c 0
 270 846 338 889 410 922 c 2
 500 963 l 2
 537 980 575 986 611 986 c 0
 702 986 782 946 782 946 c 1
 782 1012 l 2
 782 1203 766 1363 766 1363 c 1
 684 1357 l 2
 660 1355 597 1354 597 1354 c 1
 587 1446 l 1
 587 1446 692 1451 720 1452 c 0xbc
592 109 m 0xbc
 696 109 782 176 782 176 c 1
 782 768 l 1
 782 768 700 862 553 862 c 0
 371 862 269 671 269 482 c 0
 269 295 369 109 592 109 c 0xbc
EndSplineSet
Validated: 1
Layer: 2
SplineSet
782 0 m 5
 782 88 l 5
 588 -32 l 5
 588 -32 579 -36 517 -36 c 4
 307 -36 80 72 80 422 c 4
 80 630 181 774 234 817 c 4
 270 846 338 889 410 922 c 6
 500 963 l 6
 537 980 575 986 611 986 c 4
 702 986 778 946 778 946 c 5
 778 1012 l 6
 778 1203 761 1358 761 1358 c 5
 684 1351 l 6
 660 1349 597 1348 597 1348 c 5
 587 1452 l 5
 587 1452 595 1455 641 1456 c 4
 870 1461 994 1478 994 1478 c 5
 994 1478 977 1338.18188477 977 541 c 6
 977 438 l 6
 977 145 985 90 985 90 c 5
 1150 85 l 5
 1152 -5 l 5
 782 0 l 5
592 109 m 4
 696 109 780 173 780 173 c 5
 778 768 l 5
 778 768 700 862 553 862 c 4
 371 862 269 671 269 482 c 4
 269 295 369 109 592 109 c 4
822 -1 m 2
 785 0 782 -3 782 27 c 2
 782 88 l 1
 630 -7 l 2
 599 -26 579 -36 517 -36 c 0
 307 -36 80 72 80 422 c 0
 80 630 181 774 234 817 c 0
 270 846 338 889 410 922 c 2
 500 963 l 2
 537 980 575 986 611 986 c 0
 702 986 778 946 778 946 c 1
 778 1012 l 2
 778 1203 761 1358 761 1358 c 1
 684 1351 l 2
 660 1349 642 1348 629 1348 c 0
 595 1348 587 1355 587 1433 c 0
 587 1446 595 1455 641 1456 c 0
 870 1461 948 1483 957 1483 c 0
 984 1483 990 1471 990 1453 c 0
 990 1422 977 1221 977 541 c 2
 977 438 l 2
 977 145 985 90 985 90 c 1
 1090 85 l 2
 1154 82 1155 81 1155 47 c 0
 1155 4 1144 -5 1111 -5 c 2
 822 -1 l 2
592 109 m 0
 696 109 780 173 780 173 c 1
 778 768 l 1
 778 768 700 862 553 862 c 0
 371 862 269 671 269 482 c 0
 269 295 369 109 592 109 c 0
EndSplineSet
EndChar

StartChar: e
Encoding: 101 101 4
Width: 1020
VWidth: 2048
Flags: W
HStem: -37 171<387.173 676.702> 518 96<236 737> 880 115<361.488 628.679>
VStem: 47 178<301.042 588.76 614 656.263> 737 203<619 768.818>
LayerCount: 4
Fore
SplineSet
236 614 m 1
 737 619 l 1
 737 772 618 880 489 880 c 0
 379 880 268 803 236 614 c 1
900 323 m 1
 964 279 l 1
 964 279 792 -37 476 -37 c 0
 265 -37 47 96 47 428 c 0
 47 505 62 579 88 646 c 0
 104 687 264 995 535 995 c 0
 664 995 940 913 940 571 c 0
 940 524 936 515 850 515 c 2
 638 516 l 2
 544 516 424 516 228 518 c 1
 226 503 225 488 225 471 c 0
 225 299 357 134 544 134 c 0
 684 134 773 188 900 323 c 1
EndSplineSet
Validated: 1
Layer: 2
SplineSet
236 606 m 5
 737 611 l 5
 737 764 618 872 489 872 c 4
 379 872 268 795 236 606 c 5
573 131 m 4
 739 131 811 222 882 289 c 4
 900 307 903 317 930 300 c 4
 944 291 958 277 958 267 c 4
 958 243 836 74 688 7 c 4
 622 -23 567 -45 476 -45 c 4
 265 -45 47 88 47 420 c 4
 47 497 62 571 88 638 c 4
 104 679 264 987 535 987 c 4
 664 987 940 905 940 563 c 4
 940 516 936 507 850 507 c 6
 638 508 l 6
 544 508 424 508 228 510 c 5
 226 495 225 480 225 463 c 4
 225 323 311 131 573 131 c 4
EndSplineSet
EndChar

StartChar: f
Encoding: 102 102 5
Width: 689
VWidth: 2048
Flags: W
HStem: 0 90<20 204 399 580> 866 90<31 204 399 640> 1362 110<453.551 703.5>
VStem: 204 195<90 866 956 1260.75> 614 175<1280.56 1359.65>
LayerCount: 4
Fore
SplineSet
674 1260 m 0
 654 1260 631 1270 620 1280 c 0
 607 1292 614 1294 614 1310 c 0
 614 1331 605 1362 551 1362 c 0
 496 1362 428 1336 410 1222 c 0
 404 1183 399 1153 399 1055 c 2
 399 956 l 1
 640 956 l 1
 640 866 l 1
 399 866 l 1
 399 90 l 1
 580 90 l 1
 580 0 l 1
 20 0 l 1
 20 90 l 1
 204 90 l 1
 204 866 l 1
 31 866 l 1
 31 956 l 1
 204 956 l 1
 204 990 l 2
 204 1158 221 1197 243 1246 c 0
 262 1288 284 1314 306 1333 c 0
 371 1387 473 1442 544 1461 c 0
 586 1472 617 1472 634 1472 c 0
 773 1472 789 1404 789 1355 c 0
 789 1298 744 1260 674 1260 c 0
EndSplineSet
Validated: 1
EndChar

StartChar: g
Encoding: 103 103 6
Width: 1008
VWidth: 2048
Flags: MW
HStem: -460 90<274.332 663.954> -36 154<272.057 716.703> 290 84<342.98 583.414> 870 120<332.184 575.533>
VStem: 23 177<-305.515 -146.885> 76 168<64 220.251 474.134 766.448> 663 163<492.369 778.564> 765 158<-283.039 -82.2811>
LayerCount: 4
Fore
SplineSet
448 870 m 0
 347 870 247 791 247 629 c 0
 247 503 321 374 468 374 c 0
 599 374 663 490 663 610 c 0
 663 738 591 870 448 870 c 0
826 656 m 0
 826 461 637 290 440 290 c 0
 419 290 404 291 393 291 c 0
 337 291 244 222 244 179 c 0
 244 124 320 118 348 118 c 2
 633 118 l 2
 724 118 923 114 923 -124 c 0
 923 -258 832 -460 418 -460 c 0
 107 -460 23 -335 23 -251 c 0
 23 -123 230 -30 230 -30 c 1
 230 -30 76 14 76 114 c 0
 76 249 266 308 266 308 c 1
 266 308 62 390 62 590 c 0
 62 701 118 778 203 853 c 0
 295 933 390 990 514 990 c 0
 577 990 623 973 676 926 c 1
 960 926 l 1
 960 836 l 1
 772 836 l 1
 817 780 826 715 826 656 c 0
466 -370 m 0
 700 -370 765 -253 765 -180 c 0
 765 -127 730 -69 652 -46 c 0
 619 -36 578 -36 543 -36 c 2
 359 -36 l 1
 359 -36 200 -91 200 -203 c 0
 200 -293 280 -370 466 -370 c 0
EndSplineSet
Validated: 1
EndChar

StartChar: h
Encoding: 104 104 7
Width: 1302
VWidth: 2048
Flags: W
HStem: 0 90<35 201 396 560 714 885 1080 1254> 853 144<613.442 828.269> 1362 86<25 193.32>
VStem: 201 195<90 787.833 853 1362> 885 195<90 793.5>
LayerCount: 4
Fore
SplineSet
560 90 m 1
 560 0 l 1
 35 0 l 1
 35 90 l 1
 201 90 l 1
 201 1016 l 2
 201 1235 194 1362 194 1362 c 1
 137 1358 84 1358 25 1358 c 1
 21 1448 l 1
 225 1448 410 1475 410 1475 c 1
 397 853 l 1
 651 992 l 1
 651 992 677 997 723 997 c 0
 876 997 1080 928 1080 745 c 2
 1080 90 l 1
 1258 90 l 1
 1254 0 l 1
 714 0 l 1
 714 90 l 1
 885 90 l 1
 885 635 l 2
 885 762 840 853 691 853 c 0
 555 853 402 769 396 767 c 1
 396 90 l 1
 560 90 l 1
EndSplineSet
Validated: 1
EndChar

StartChar: i
Encoding: 105 105 8
Width: 653
VWidth: 2048
Flags: W
HStem: 0 90<63 226 421 593> 866 90<46 220.783> 965 20G<357 424> 1180 235<244.572 431.556>
VStem: 220 236<1203.49 1391.28> 226 195<90 866>
LayerCount: 4
Fore
SplineSet
593 90 m 1xf4
 593 0 l 1
 63 0 l 1
 63 90 l 1
 226 90 l 1
 226 566 l 2
 226 810 225 866 225 866 c 1
 46 866 l 1
 46 956 l 1
 173 958 290 963 424 985 c 1
 424 957 421 796 421 735 c 2
 421 90 l 1
 593 90 l 1xf4
220 1298 m 0xf8
 220 1361 271 1415 336 1415 c 0
 399 1415 456 1368 456 1298 c 0
 456 1233 406 1180 336 1180 c 0
 266 1180 220 1233 220 1298 c 0xf8
EndSplineSet
Validated: 1
Layer: 2
SplineSet
593 56 m 6
 593 30 l 6
 593 4 592 -3 563 -3 c 4
 531 -3 467 0 336 0 c 4
 212 0 143 -3 106 -3 c 4
 69 -3 63 5 63 37 c 6
 63 56 l 6
 63 97 84 78 216 90 c 5
 216 90 226 190 226 438 c 6
 226 566 l 6
 226 810 225 866 225 866 c 5
 174 866 138 865 112 865 c 4
 53 865 46 866 46 904 c 6
 46 930 l 6
 46 962 51 954 135 957 c 4
 253 961 344 971 421 984 c 5
 436 969 l 5
 433 918 425 802 425 735 c 6
 425 561 l 6
 425 102 438 85 438 85 c 5
 492 85 527 87 550 87 c 4
 589 87 593 82 593 56 c 6
220 1298 m 4
 220 1361 271 1415 336 1415 c 4
 399 1415 456 1368 456 1298 c 4
 456 1233 406 1180 336 1180 c 4
 266 1180 220 1233 220 1298 c 4
EndSplineSet
EndChar

StartChar: j
Encoding: 106 106 9
Width: 557
VWidth: 2048
Flags: W
HStem: 866 90<21 193.517> 965 20G<327 394> 1180 235<214.572 401.556>
VStem: 190 236<1203.49 1391.28> 196 195<-235.838 866>
LayerCount: 4
Fore
SplineSet
196 -86 m 2xe8
 196 566 l 2
 196 810 195 866 195 866 c 1
 21 866 l 1
 21 956 l 1
 148 958 260 963 394 985 c 1
 394 957 391 796 391 735 c 2
 391 -55 l 2
 391 -105 388 -146 366 -199 c 0
 308 -342 50 -408 50 -408 c 1
 21 -318 l 1
 57 -302 114 -282 152 -238 c 0
 191 -192 196 -138 196 -86 c 2xe8
190 1298 m 0xf0
 190 1361 241 1415 306 1415 c 0
 369 1415 426 1368 426 1298 c 0
 426 1233 376 1180 306 1180 c 0
 236 1180 190 1233 190 1298 c 0xf0
EndSplineSet
Validated: 1
EndChar

StartChar: k
Encoding: 107 107 10
Width: 1206
VWidth: 2048
Flags: MW
HStem: 0 90<28 206 401 578 668 819 1047 1182> 866 90<655 812 986 1128> 1360 83<22 196.448>
VStem: 206 195<90 444 548 1360>
LayerCount: 4
Fore
SplineSet
650 624 m 1
 1047 90 l 1
 1182 90 l 1
 1182 0 l 1
 668 0 l 1
 668 90 l 1
 819 90 l 1
 500 519 l 1
 401 444 l 1
 401 90 l 1
 578 90 l 1
 578 0 l 1
 28 0 l 1
 28 90 l 1
 206 90 l 1
 206 971 l 2
 206 1144 200 1360 200 1360 c 1
 145 1358 132 1355 22 1355 c 1
 20 1443 l 1
 141 1445 254 1456 414 1472 c 1
 414 1472 401 1074 401 696 c 2
 401 548 l 1
 812 866 l 1
 655 866 l 1
 655 956 l 1
 1128 956 l 1
 1128 866 l 1
 986 866 l 1
 650 624 l 1
EndSplineSet
Validated: 1
EndChar

StartChar: l
Encoding: 108 108 11
Width: 606
VWidth: 2048
Flags: W
HStem: 0 90<40 215 410 575> 1361 89<39 212.172>
VStem: 215 195<90 1370>
LayerCount: 4
Fore
SplineSet
215 90 m 1
 215 1370 l 1
 159 1363 95 1364 39 1361 c 1
 35 1450 l 1
 211 1455 364 1471 415 1479 c 1
 415 1429 410 611 410 360 c 2
 410 90 l 1
 576 90 l 1
 575 0 l 1
 40 0 l 1
 40 90 l 1
 215 90 l 1
EndSplineSet
Validated: 1
Layer: 2
SplineSet
202 83 m 5
 202 83 212 98 212 360 c 4
 212 1038 216 1176 216 1251 c 4
 216 1289 215 1311 212 1377 c 5
 130 1369 102 1364 67 1364 c 4
 42 1364 28 1385 28 1421 c 4
 28 1447 32 1456 74 1457 c 4
 301 1460 397 1483 397 1483 c 6
 399 1483 402 1484 404 1484 c 4
 409 1484 414 1482 414 1468 c 6
 414 1468 405 460 405 360 c 4
 405 186 416 90 416 90 c 5
 465 87 474 87 483 87 c 6
 528 87 l 6
 576 87 577 83 577 51 c 6
 577 44 l 6
 577 0 569 0 524 0 c 4
 276 0 155 -9 96 -9 c 4
 40 -9 40 -1 40 31 c 6
 40 52 l 6
 40 83 60 80 100 81 c 6
 202 83 l 5
202 83 m 1
 202 83 212 98 212 360 c 0
 212 1038 216 1176 216 1251 c 0
 216 1289 215 1311 212 1377 c 1
 130 1369 102 1364 67 1364 c 0
 42 1364 28 1385 28 1421 c 0
 28 1447 32 1456 74 1457 c 0
 301 1460 397 1483 397 1483 c 1
 414 1468 l 1
 414 1468 405 460 405 360 c 0
 405 186 416 90 416 90 c 1
 465 87 474 87 483 87 c 2
 528 87 l 2
 576 87 577 83 577 51 c 2
 577 44 l 2
 577 0 569 0 524 0 c 0
 276 0 155 -9 96 -9 c 0
 40 -9 40 -1 40 31 c 2
 40 52 l 2
 40 83 60 80 100 81 c 2
 202 83 l 1
EndSplineSet
EndChar

StartChar: m
Encoding: 109 109 12
Width: 1986
VWidth: 2048
Flags: W
HStem: 0 90<36 211 406 572 734 894 1089 1269 1410 1577 1772 1959> 838 146<657 826.805 1346 1515.7> 870 86<52 195.199>
VStem: 211 195<90 778.333> 894 195<90 755.966> 1577 195<90 776.133>
CounterMasks: 1 1c
LayerCount: 4
Fore
SplineSet
52 956 m 1xbc
 165 956 373 972 406 979 c 1
 406 843 l 1
 657 984 l 1
 801 984 980 947 1062 829 c 1
 1346 984 l 1
 1466 984 1772 974 1772 678 c 2
 1772 90 l 1
 1959 90 l 1
 1959 0 l 1
 1410 0 l 1
 1410 90 l 1
 1577 90 l 1
 1577 641 l 2
 1577 799 1472 838 1360 838 c 0
 1292 838 1224 824 1166 800 c 0
 1138 788 1082 756 1082 756 c 1
 1082 756 1089 710 1089 622 c 2
 1089 90 l 1
 1269 90 l 1
 1269 0 l 1
 734 0 l 1
 734 90 l 1
 894 90 l 1
 894 648 l 2
 894 689 886 838 669 838 c 0xdc
 565 838 474 802 406 753 c 1
 406 90 l 1
 572 90 l 1
 572 0 l 1
 36 0 l 1
 36 90 l 1
 211 90 l 1
 211 632 l 2
 211 834 199 877 199 877 c 1
 117 871 94 871 52 870 c 1
 52 956 l 1xbc
EndSplineSet
Validated: 1
EndChar

StartChar: n
Encoding: 110 110 13
Width: 1320
VWidth: 2048
Flags: W
HStem: 0 90<30 204 399 572 717 892 1087 1271> 838 145<602.113 831.39> 875 86<37 195.613>
VStem: 204 195<90 766.901> 892 195<90 778.694>
LayerCount: 4
Fore
SplineSet
1087 693 m 2xd8
 1087 90 l 1
 1271 90 l 1
 1271 0 l 1
 717 0 l 1
 717 90 l 1
 892 90 l 1
 892 641 l 2
 892 799 782 838 670 838 c 0xd8
 536 838 399 743 399 743 c 1
 399 90 l 1
 572 90 l 1
 572 0 l 1
 29 0 l 1
 30 90 l 1
 204 90 l 1
 204 632 l 2
 204 834 197 875 197 875 c 1
 125 871 98 871 36 871 c 1
 37 961 l 1xb8
 183 961 299 969 406 977 c 1
 401 846 l 1
 639 980 l 1
 639 980 663 983 690 983 c 0
 901 983 1087 918 1087 693 c 2xd8
EndSplineSet
Validated: 1
EndChar

StartChar: o
Encoding: 111 111 14
Width: 1206
VWidth: 2048
Flags: W
HStem: -35 117<469.574 804.462> 882 105<411.766 735.525>
VStem: 69 193<311.739 664.078> 932 200<290.465 658.172>
LayerCount: 4
Fore
SplineSet
1132 513 m 0
 1132 162 836 -35 599 -35 c 0
 346 -35 69 122 69 459 c 0
 69 567 105 664 162 746 c 0
 278 911 457 987 631 987 c 0
 888 987 1132 814 1132 513 c 0
932 430 m 0
 932 734 747 882 572 882 c 0
 413 882 262 761 262 525 c 0
 262 312 382 82 660 82 c 0
 804 82 932 184 932 430 c 0
EndSplineSet
Validated: 1
EndChar

StartChar: p
Encoding: 112 112 15
Width: 1175
VWidth: 2048
Flags: HW
HStem: -448 90<23 207 402 592> -19 132<446.135 738.413> 851 146<550.935 751.611> 866 90<25 195.335> 960 20G<340.5 392.189>
VStem: 207 195<-358 64 142.121 819.071> 918 190<299.046 672.328>
LayerCount: 4
Fore
SplineSet
524 -19 m 0xe6
 506 -19 487 -5 468 10 c 2
 402 64 l 1
 402 -358 l 1
 592 -358 l 1
 592 -448 l 1
 23 -448 l 1
 23 -358 l 1
 207 -358 l 1
 207 632 l 2
 207 691 196 866 196 866 c 1
 25 866 l 1
 25 956 l 1
 126 957 289 969 392 980 c 1xde
 393 874 l 1
 582 989 l 1
 582 989 610 997 666 997 c 0
 976 997 1108 765 1108 533 c 0
 1108 370 1043 206 926 123 c 0
 851 70 749 27 656 0 c 0
 606 -14 563 -19 524 -19 c 0xe6
918 479 m 0
 918 668 795 851 604 851 c 0xe6
 470 851 396 790 396 790 c 1
 402 172 l 1
 402 172 418 155 454 140 c 0
 496 122 540 113 584 113 c 0
 704 113 824 179 885 306 c 0
 910 358 918 418 918 479 c 0
EndSplineSet
EndChar

StartChar: q
Encoding: 113 113 16
Width: 1198
VWidth: 2048
Flags: W
HStem: -448 90<608 785 979 1165> -23 127<439.51 666.117> 870 116<412.898 744.557>
VStem: 80 181<312.65 672.177> 784 195<-358 58 123.808 828.656>
LayerCount: 4
Fore
SplineSet
594 104 m 0
 675 104 784 135 784 135 c 1
 784 797 l 1
 726 845 652 870 575 870 c 0
 360.978972996 870 261 697 261 518 c 0
 261 319 382 104 594 104 c 0
979 956 m 2
 979 -358 l 1
 1165 -358 l 1
 1165 -448 l 1
 608 -448 l 1
 608 -358 l 1
 785 -358 l 1
 784 58 l 1
 620 -20 l 1
 620 -20 595 -23 557 -23 c 0
 415 -23 80 17 80 444 c 0
 80 513 90 576 110 634 c 0
 154 759 238 822 342 898 c 0
 415 952 508 986 595 986 c 0
 788 986 889 900 889 900 c 1
 934 960 l 2
 941 969 949 974 953 974 c 2
 962 974 l 2
 970 974 979 972 979 956 c 2
EndSplineSet
Validated: 524289
EndChar

StartChar: r
Encoding: 114 114 17
Width: 833
VWidth: 2048
Flags: W
HStem: 0 90<31 199 394 579> 828 167<510.631 683> 866 90<29 196.851>
VStem: 199 195<90 765.47 812 864.586> 619 168<758.445 826.475>
LayerCount: 4
Fore
SplineSet
391 812 m 1xb8
 421 845 451 879 478 913 c 0
 513 957 561 995 630 995 c 0
 736 995 787 935 787 852 c 0
 787 767 701 720 643 720 c 0
 613 720 619 742 619 759 c 0
 619 812 585 828 558 828 c 0xd8
 498 828 394 731 394 703 c 2
 394 90 l 1
 579 90 l 1
 579 0 l 1
 31 0 l 1
 31 90 l 1
 199 90 l 1
 199 749 l 2
 199 796 198 836 194 866 c 1
 29 866 l 1
 25 956 l 1
 153 958 276 964 404 986 c 1
 404 986 391 833 391 812 c 1xb8
EndSplineSet
Validated: 1
EndChar

StartChar: s
Encoding: 115 115 18
Width: 890
VWidth: 2048
Flags: W
HStem: -36 117<275.345 583.797> 891 102<294.398 598.019>
VStem: 81 154<653.052 816.382> 85 84<263 324> 631 166<139.073 324.949> 656 94<654 722.992>
LayerCount: 4
Fore
SplineSet
169 326 m 1xd8
 176 263 l 2
 188 149 323 81 443 81 c 0
 542 81 631 128 631 233 c 0xd8
 631 334 529 363 434 387 c 2
 338 411 l 2
 283 425 81 464 81 674 c 0
 81 741 109 796 145 841 c 0
 216 930 331 970 359 978 c 0
 393 987 432 993 474 993 c 0
 528 993 661 977 743 913 c 1
 750 654 l 1
 656 654 l 1
 628 782 l 2
 619 824 612 835 593 847 c 0
 560 869 507 891 442 891 c 0
 325 891 235 816 235 743 c 0xe4
 235 715 245 639 377 605 c 2
 496 574 l 2
 639 537 797 498 797 295 c 0
 797 101 606 -36 393 -36 c 0
 196 -36 90 70 90 70 c 1
 85 324 l 1
 169 326 l 1xd8
EndSplineSet
Validated: 1
EndChar

StartChar: t
Encoding: 116 116 19
Width: 685
VWidth: 2048
Flags: MW
HStem: -26 172<371.5 504> 866 90<363 628>
VStem: 168 195<172.011 866> 265 98<1241.58 1315>
LayerCount: 4
Fore
SplineSet
168 866 m 1xe0
 30 866 l 1
 30 927 l 1
 30 927 38 935 51 939 c 0
 145 965 234 1008 256 1193 c 2
 265 1267 l 2
 270 1309 275 1310 277 1315 c 1
 363 1315 l 1
 363 956 l 1xd0
 628 956 l 1
 628 866 l 1
 363 866 l 1
 363 311 l 2
 363 253 369 201 395 180 c 0
 418 162 459 146 494 146 c 0
 514 146 534 154 552 164 c 2
 584 182 l 2
 594 187 608 196 608 196 c 1
 648 130 l 1
 456 12 l 2
 407 -18 396 -26 378 -26 c 0
 365 -26 323 -12 294 4 c 2
 239 35 l 2
 172 73 168 110 168 241 c 2
 168 866 l 1xe0
EndSplineSet
Validated: 1
Layer: 2
SplineSet
168 266 m 2
 168 866 l 1
 27 866 l 1
 27 927 l 1
 55 955 252 932 273 1310 c 1
 363 1310 l 1
 363 956 l 1
 620 956 l 1
 620 866 l 1
 363 866 l 1
 363 324 l 2
 363 261 366 207 394 185 c 0
 417 167 459 147 494 146 c 0
 526 146 546 162 560 169 c 2
 612 196 l 1
 658 117 l 1
 458 9 l 2
 419 -12 379 -26 368 -26 c 0
 355 -26 323 -17 294 -1 c 2
 239 30 l 2
 168 70 168 114 168 266 c 2
305 1310 m 6
 333 1310 l 6
 360 1310 363 1307 363 1267 c 6
 363 956 l 5
 602 960 l 6
 624 960 626 956 626 914 c 4
 626 866 625 861 588 861 c 4
 566 861 530 861 470 863 c 6
 363 866 l 5
 363 324 l 6
 363 261 366 207 394 185 c 4
 417 167 459 147 494 146 c 4
 525 146 541 158 582 180 c 4
 593 186 600 189 606 189 c 4
 613 189 619 184 635 157 c 4
 646 138 646 136 646 129 c 4
 646 118 638 106 610 91 c 6
 458 9 l 6
 419 -12 379 -26 368 -26 c 4
 355 -26 323 -17 294 -1 c 6
 239 30 l 6
 168 70 168 114 168 266 c 6
 168 866 l 5
 70 857 l 6
 64 857 60 856 55 856 c 4
 33 856 28 880 28 901 c 4
 28 932 34 933 44 937 c 4
 67 945 112 949 172 993 c 4
 203 1016 248 1112 252 1139 c 4
 258 1176 263 1218 266 1249 c 4
 272 1309 275 1310 305 1310 c 6
EndSplineSet
EndChar

StartChar: u
Encoding: 117 117 20
Width: 1216
VWidth: 2048
Flags: W
HStem: 0 90<1026 1191> 866 90<26 187.614 646 817.923> 954 20G<646 1030.72>
VStem: 194 195<219.887 859.413> 831 195<90 138 184.45 865.98>
LayerCount: 4
Fore
SplineSet
646 866 m 1xd8
 646 956 l 1xd8
 890 959 1031 974 1031 974 c 1xb8
 1031 974 1026 752 1026 612 c 2
 1026 90 l 1
 1191 90 l 1
 1191 0 l 1
 833 0 l 1
 833 138 l 1
 600 -10 l 1
 518 -4 194 -22 194 319 c 2
 194 866 l 1
 26 866 l 1
 24 956 l 1
 137 956 307 964 403 971 c 1
 403 971 389 830 389 367 c 0
 389 185 525 141 625 141 c 0
 727 141 831 209 831 209 c 1
 831 662 l 2
 831 840 820 866 820 866 c 1
 646 866 l 1xd8
EndSplineSet
Validated: 1
EndChar

StartChar: v
Encoding: 118 118 21
Width: 1136
VWidth: 2048
Flags: W
HStem: -59 21G<535.72 609.268> 866 90<25 171.892 388 537 695 844 975.042 1113>
LayerCount: 4
Fore
SplineSet
695 956 m 1
 1113 956 l 1
 1114 866 l 1
 995 866 l 1
 960 787 927 729 823 478 c 2
 601 -59 l 1
 544 -59 l 1
 544 -59 511 14 479 98 c 0
 347 440 220 738 151 866 c 1
 25 866 l 1
 25 956 l 1
 539 956 l 1
 537 866 l 1
 388 866 l 1
 616 274 l 1
 789 698 835 820 844 866 c 1
 694 866 l 1
 695 956 l 1
EndSplineSet
Validated: 1
Layer: 2
SplineSet
695 900 m 6
 695 927 l 6
 695 954 701 958 809 958 c 4
 863 958 942 958 1059 957 c 4
 1102 957 1115 954 1115 907 c 4
 1115 867 1100 866 1064 866 c 6
 1003 866 l 5
 954 756 906 684 659 74 c 4
 621 -20 608 -58 576 -58 c 4
 536 -58 525 -23 479 98 c 4
 347 440 212 738 143 866 c 5
 60 866 l 6
 22 866 14 871 14 923 c 4
 14 949 14 956 60 956 c 6
 476 956 l 6
 532 956 533 945 533 924 c 4
 533 866 508 866 472 866 c 6
 380 866 l 5
 462 660 532 498 616 274 c 5
 789 698 838 820 847 866 c 5
 755 866 l 6
 702 866 695 871 695 900 c 6
EndSplineSet
EndChar

StartChar: w
Encoding: 119 119 22
Width: 1688
VWidth: 2048
Flags: W
HStem: -59 21G<483.468 549.333 1102.86 1205> 866 90<16 149.749 360 490 679 807.721 971 1106 1252 1397 1509.67 1646>
LayerCount: 4
Fore
SplineSet
1527 866 m 1
 1441 680 1248 187 1162 -59 c 1
 1109 -59 l 1
 1070 68 l 1
 1019 230 924 499 858 682 c 1
 754 456 662 242 576 25 c 0
 567 2 541 -59 541 -59 c 1
 491 -59 l 1
 462 18 l 1
 321 384 201 730 128 866 c 1
 16 866 l 1
 16 956 l 1
 490 956 l 1
 490 866 l 1
 360 866 l 1
 448 594 472 540 557 252 c 1
 808 824 l 1
 802 853 799 853 793 866 c 1
 775 867 679 870 679 870 c 1
 679 956 l 1
 1106 956 l 1
 1106 866 l 1
 971 866 l 1
 1168 277 l 1
 1397 866 l 1
 1252 866 l 1
 1250 956 l 1
 1646 956 l 1
 1646 866 l 1
 1527 866 l 1
EndSplineSet
Validated: 1
EndChar

StartChar: x
Encoding: 120 120 23
Width: 1126
VWidth: 2048
Flags: W
HStem: 0 90<30 163 296 444 597 759 974 1093> 866 90<62 192 401 552 678 795 926 1062>
LayerCount: 4
Fore
SplineSet
487 481 m 1
 441 531 l 1
 192 866 l 1
 62 866 l 1
 62 956 l 1
 552 956 l 1
 552 866 l 1
 401 866 l 1
 564 642 l 1
 587 604 l 1
 609 637 l 1
 795 866 l 1
 678 866 l 1
 678 952 l 1
 1062 952 l 1
 1062 866 l 1
 926 866 l 1
 681 572 l 1
 641 530 l 1
 686 480 l 1
 974 90 l 1
 1093 90 l 1
 1093 0 l 1
 597 0 l 1
 597 90 l 1
 759 90 l 1
 540 404 l 1
 516 370 l 1
 296 90 l 1
 444 90 l 1
 444 0 l 1
 30 0 l 1
 30 90 l 1
 163 90 l 1
 446 436 l 1
 487 481 l 1
EndSplineSet
Validated: 1
Layer: 2
SplineSet
480 485 m 1
 441 531 l 1
 182 866 l 1
 62 866 l 1
 62 956 l 1
 552 956 l 1
 552 866 l 1
 401 866 l 1
 565 632 l 1
 587 598 l 1
 609 632 l 1
 790 866 l 1
 678 866 l 1
 678 952 l 1
 1062 952 l 1
 1062 866 l 1
 926 866 l 1
 677 559 l 1
 646 517 l 1
 683 475 l 1
 974 90 l 1
 1093 90 l 1
 1093 0 l 1
 597 0 l 1
 597 90 l 1
 754 90 l 1
 558 370 l 1
 538 402 l 1
 516 370 l 1
 296 90 l 1
 444 90 l 1
 444 0 l 1
 30 0 l 1
 30 90 l 1
 158 90 l 1
 441 441 l 1
 480 485 l 1
490 485 m 1
 451 531 l 1
 192 866 l 1
 62 866 l 1
 62 956 l 1
 552 956 l 1
 552 866 l 1
 396 866 l 1
 560 632 l 1
 584 592 l 1
 611 632 l 1
 792 866 l 1
 678 866 l 1
 678 952 l 1
 1062 952 l 1
 1062 866 l 1
 921 866 l 1
 672 559 l 1
 636 519 l 1
 673 475 l 1
 964 90 l 1
 1093 90 l 1
 1093 0 l 1
 607 0 l 1
 607 90 l 1
 764 90 l 1
 568 370 l 1
 544 410 l 1
 516 370 l 1
 296 90 l 1
 444 90 l 1
 444 0 l 1
 30 0 l 1
 30 90 l 1
 168 90 l 1
 451 441 l 1
 490 485 l 1
486 485 m 1
 192 866 l 1
 62 866 l 1
 62 956 l 1
 552 956 l 1
 552 866 l 1
 396 866 l 1
 584 597 l 1
 792 866 l 1
 678 866 l 1
 678 952 l 1
 1062 952 l 1
 1062 866 l 1
 921 866 l 1
 640 519 l 1
 964 90 l 1
 1093 90 l 1
 1093 0 l 1
 607 0 l 1
 607 90 l 1
 764 90 l 1
 544 405 l 1
 296 90 l 1
 444 90 l 1
 444 0 l 1
 30 0 l 1
 30 90 l 1
 170 90 l 1
 486 485 l 1
EndSplineSet
EndChar

StartChar: y
Encoding: 121 121 24
Width: 1147
VWidth: 2048
Flags: W
HStem: -439 158<234 363.457> 866 90<18 152 370 526 691 848 976 1129>
LayerCount: 4
Fore
SplineSet
18 956 m 1
 526 956 l 1
 526 866 l 1
 370 866 l 1
 438 705 512 508 600 278 c 1
 848 866 l 1
 691 866 l 1
 688 956 l 1
 1129 956 l 1
 1129 866 l 1
 976 866 l 1
 524 -182 l 2
 462 -325 432 -369 375 -408 c 0
 346 -428 312 -439 271 -439 c 0
 197 -439 127 -382 127 -312 c 0
 127 -253 166 -202 249 -202 c 0
 294 -202 260 -241 289 -270 c 0
 295 -276 304 -281 312 -281 c 0
 326 -281 345 -280 388 -186 c 2
 454 -42 l 2
 485 25 494 44 494 59 c 0
 494 71 490 80 486 90 c 2
 152 866 l 1
 18 866 l 1
 18 956 l 1
EndSplineSet
Validated: 1
EndChar

StartChar: z
Encoding: 122 122 25
Width: 962
VWidth: 2048
Flags: W
HStem: 0 117<315 761> 852 112<236 640>
VStem: 117 68<656 714.001> 797 75<227.475 300>
LayerCount: 4
Fore
SplineSet
236 852 m 1
 185 656 l 1
 117 656 l 1
 117 964 l 1
 912 964 l 1
 922 932 l 1
 315 117 l 1
 761 127 l 1
 797 300 l 1
 872 300 l 1
 881 0 l 1
 53 0 l 1
 42 30 l 1
 640 852 l 1
 236 852 l 1
EndSplineSet
Validated: 1
EndChar

StartChar: A
Encoding: 65 65 26
Width: 1560
VWidth: 2048
Flags: W
HStem: 0 100<21 227.227 360 541 941 1132 1337.4 1497> 470 100<534 947> 1435 20G<662.5 912>
LayerCount: 4
Fore
SplineSet
823 1455 m 1
 1001 1017 1294 226 1356 100 c 1
 1497 100 l 1
 1497 0 l 1
 941 0 l 1
 941 100 l 1
 1132 100 l 1
 987 470 l 1
 498 470 l 1
 360 100 l 1
 541 100 l 1
 541 0 l 1
 21 0 l 1
 21 100 l 1
 210 100 l 1
 394 532 570 964 755 1455 c 1
 823 1455 l 1
534 570 m 1
 947 570 l 1
 744 1116 l 1
 534 570 l 1
EndSplineSet
Validated: 1
EndChar

StartChar: B
Encoding: 66 66 27
Width: 1318
VWidth: 2048
Flags: W
HStem: -2 123<443 877.986> 0 100<39 233> 728 100<443 778.378> 1311 100<32 233 443 778.26>
VStem: 233 210<121 728 828 1311> 869 211<949.743 1228.94> 996 234<230.478 573.867>
LayerCount: 4
Fore
SplineSet
233 101 m 1x7a
 233 1311 l 1
 32 1311 l 1
 32 1411 l 1
 676 1411 l 2
 903 1411 1080 1338 1080 1122 c 0x7c
 1080 867 836 805 836 805 c 1
 836 805 932 791 1029 731 c 0
 1129 670 1230 561 1230 391 c 0
 1230 34 864 -2 725 -2 c 2xba
 39 0 l 1
 39 100 l 1
 233 101 l 1x7a
537 121 m 2xba
 794 121 996 130 996 396 c 0
 996 693 736 728 619 728 c 2
 443 728 l 1
 443 121 l 1
 537 121 l 2xba
597 1311 m 2
 443 1311 l 1
 443 828 l 1
 544 828 l 2
 672.693338456 828 869 835.340250029 869 1063 c 0x3c
 869 1162.73515625 848 1311 597 1311 c 2
EndSplineSet
Validated: 524289
EndChar

StartChar: C
Encoding: 67 67 28
Width: 1560
VWidth: 2048
Flags: W
HStem: -53 123<717.466 1138.22> 1005 21G<1271 1366> 1336 120<697.213 1116.89>
VStem: 109 249<451.124 929.745> 1276 90<1005 1176.03> 1329 78<283.254 438>
LayerCount: 4
Fore
SplineSet
898 1336 m 0xf8
 666 1336 358 1163 358 722 c 0
 358 323 615 70 946 70 c 0
 1130 70 1240 166 1295 289 c 0
 1318 342 1323 391 1329 438 c 1
 1407 438 l 1
 1407 75 l 1xf4
 1407 75 1191 -53 900 -53 c 0
 393 -53 109 244 109 680 c 0
 109 1075 436 1456 914 1456 c 0
 1136 1456 1223 1405 1366 1331 c 1
 1366 1005 l 1
 1276 1005 l 1
 1266 1234 1130 1336 898 1336 c 0xf8
EndSplineSet
Validated: 1
EndChar

StartChar: D
Encoding: 68 68 29
Width: 1566
VWidth: 2048
Flags: W
HStem: 0 100<39 233 450.469 921.016> 1290 121<443 855.98> 1311 100<39 233>
VStem: 233 210<129.646 1290> 1215 232<462.053 929.48>
LayerCount: 4
Fore
SplineSet
233 100 m 1xd8
 233 1311 l 1
 39 1311 l 1
 39 1411 l 1xb8
 675 1411 l 2
 798 1411 907 1401 994 1375 c 0
 1166 1324 1274 1223 1343 1108 c 0
 1412 992 1447 857 1447 729 c 0
 1447 369 1216 0 812 0 c 2
 39 0 l 1
 39 100 l 1
 233 100 l 1xd8
443 1290 m 1xd8
 443 152 l 1
 443 152 511 100 692 100 c 0
 939 100 1215 226 1215 657 c 0
 1215 972 1052 1290 599 1290 c 2
 443 1290 l 1xd8
EndSplineSet
Validated: 1
EndChar

StartChar: E
Encoding: 69 69 30
Width: 1170
VWidth: 2048
Flags: W
HStem: 0 134<450 982.18> 0 100<41 240> 720 100<450 881.653> 955 20G<884 974> 1282 129<450 978.795> 1311 100<46 240>
VStem: 240 210<134 720 820 1282> 884 90<565 714.313 825.493 975> 1001 90<1112 1220.42> 1034 76<203.153 357>
LayerCount: 4
Fore
SplineSet
46 1411 m 1x7740
 1091 1411 l 1x7780
 1091 1112 l 1
 1001 1112 l 1
 1001 1112 992 1189 983 1222 c 0
 974 1255 960 1267 901 1271 c 0
 807 1278 582 1282 515 1282 c 2
 450 1282 l 1
 450 820 l 1
 762 820 l 2
 872 820 884 835 884 901 c 2
 884 975 l 1
 974 975 l 1
 974 565 l 1
 884 565 l 1
 884 643 l 2
 884 709 866 720 762 720 c 2
 450 720 l 1
 450 134 l 1xbb80
 466 134 757 135 907 146 c 0
 991 152 1011 205 1034 357 c 1
 1110 357 l 1
 1110 0 l 1
 41 0 l 1
 41 100 l 1
 240 100 l 1
 240 1311 l 1
 46 1311 l 1
 46 1411 l 1x7740
EndSplineSet
Validated: 1
EndChar

StartChar: F
Encoding: 70 70 31
Width: 1146
VWidth: 2048
Flags: W
HStem: 0 100<39 239 449 647> 720 100<449 880.653> 955 20G<883 973> 1282 129<449 977.795> 1311 100<39 239>
VStem: 239 210<100 720 820 1282> 883 90<565 714.313 825.493 975> 1000 90<1122 1259.43>
LayerCount: 4
Fore
SplineSet
239 100 m 1xf7
 239 1311 l 1
 39 1311 l 1
 39 1411 l 1
 1090 1411 l 1xef
 1090 1122 l 1
 1000 1122 l 1
 1000 1122 991 1189 982 1222 c 0
 973 1255 959 1267 900 1271 c 0
 806 1278 581 1282 514 1282 c 2
 449 1282 l 1
 449 820 l 1
 761 820 l 2
 871 820 883 835 883 901 c 2
 883 975 l 1
 973 975 l 1
 973 565 l 1
 883 565 l 1
 883 643 l 2
 883 709 865 720 761 720 c 2
 449 720 l 1
 449 100 l 1
 647 100 l 1
 647 0 l 1
 39 0 l 1
 39 100 l 1
 239 100 l 1xf7
EndSplineSet
Validated: 1
EndChar

StartChar: G
Encoding: 71 71 32
Width: 1634
VWidth: 2048
Flags: W
HStem: -44 120<730.948 1158.97> 573 100<948 1235 1430 1580> 1347 123<673.672 1114.87>
VStem: 127 236<485.09 950.291> 1235 195<140.705 573> 1286 90<1025 1192.18>
LayerCount: 4
Fore
SplineSet
967 76 m 0xf4
 1152 76 1235 181 1235 181 c 1
 1235 573 l 1
 948 573 l 1
 948 673 l 1
 1580 673 l 1
 1580 573 l 1
 1430 573 l 1
 1430 72 l 1xf8
 1430 72 1186 -44 899 -44 c 0
 730 -44 574 -18 447 66 c 0
 254 193 127 422 127 684 c 0
 127 1098 425 1470 903 1470 c 0
 1232 1470 1376 1355 1376 1355 c 1
 1376 1025 l 1
 1286 1025 l 1
 1286 1322 980 1347 894 1347 c 0
 540 1347 363 1051 363 744 c 0
 363 416 565 76 967 76 c 0xf4
EndSplineSet
Validated: 1
EndChar

StartChar: H
Encoding: 72 72 33
Width: 1712
VWidth: 2048
Flags: W
HStem: 0 100<43 251 461 644 1038 1235 1445 1636> 722 90<461 1235> 1311 100<54 251 461 657 1038 1235 1445 1656>
VStem: 251 210<100 722 812 1311> 1235 210<100 722 812 1311>
LayerCount: 4
Fore
SplineSet
461 100 m 1
 644 100 l 1
 644 0 l 1
 43 0 l 1
 43 100 l 1
 251 100 l 1
 251 1311 l 1
 54 1311 l 1
 54 1411 l 1
 657 1411 l 1
 657 1311 l 1
 461 1311 l 1
 461 812 l 1
 1235 812 l 1
 1235 1311 l 1
 1038 1311 l 1
 1038 1411 l 1
 1656 1411 l 1
 1656 1311 l 1
 1445 1311 l 1
 1445 100 l 1
 1636 100 l 1
 1636 0 l 1
 1038 0 l 1
 1037 100 l 1
 1235 100 l 1
 1235 722 l 1
 461 722 l 1
 461 100 l 1
EndSplineSet
Validated: 1
EndChar

StartChar: I
Encoding: 73 73 34
Width: 700
VWidth: 2048
Flags: W
HStem: 0 100<42 235 445 646> 1311 100<28 235 445 656>
VStem: 235 210<100 1311>
LayerCount: 4
Fore
SplineSet
445 100 m 1
 646 100 l 1
 646 0 l 1
 42 0 l 1
 42 100 l 1
 235 100 l 1
 235 1311 l 1
 28 1311 l 1
 28 1411 l 1
 656 1411 l 1
 656 1311 l 1
 445 1311 l 1
 445 100 l 1
EndSplineSet
Validated: 1
EndChar

StartChar: J
Encoding: 74 74 35
Width: 777
VWidth: 2048
Flags: W
HStem: -365 117<-70 206.456> 1311 100<74 273 483 686>
VStem: -201 209<-246.832 -118.622> 273 210<-145.195 1311>
LayerCount: 4
Fore
SplineSet
-74 -87 m 0
 -42 -87 -10 -99 10 -121 c 0
 27 -140 33 -143 20 -169 c 0
 11 -186 8 -199 8 -210 c 0
 8 -242 41 -248 80 -248 c 0
 260 -248 273 -92 273 145 c 2
 273 1311 l 1
 74 1311 l 1
 74 1411 l 1
 686 1411 l 1
 686 1311 l 1
 483 1311 l 1
 483 90 l 2
 483 -52 477 -160 306 -270 c 0
 228 -320 126 -365 5 -365 c 0
 -145 -365 -201 -294 -201 -224 c 0
 -201 -155 -147 -87 -74 -87 c 0
EndSplineSet
Validated: 1
EndChar

StartChar: K
Encoding: 75 75 36
Width: 1534
VWidth: 2048
Flags: W
HStem: 0 100<40 235 445 626 799 1018 1298 1477> 1311 100<36 235 445 642 860 1061 1238 1411>
VStem: 235 210<100 701.455 800 1311>
LayerCount: 4
Fore
SplineSet
445 100 m 1
 626 100 l 1
 626 0 l 1
 40 0 l 1
 40 100 l 1
 235 100 l 1
 235 1311 l 1
 36 1311 l 1
 36 1411 l 1
 642 1411 l 1
 643 1311 l 1
 445 1311 l 1
 445 800 l 1
 1061 1311 l 1
 860 1311 l 1
 860 1411 l 1
 1411 1411 l 1
 1411 1311 l 1
 1238 1311 l 1
 663 825 l 1
 1298 100 l 1
 1477 100 l 1
 1477 0 l 1
 799 0 l 1
 799 100 l 1
 1018 100 l 1
 504 710 l 1
 468 686 454 672 445 661 c 1
 445 100 l 1
EndSplineSet
Validated: 1
EndChar

StartChar: L
Encoding: 76 76 37
Width: 1180
VWidth: 2048
Flags: W
HStem: 0 142<440 982.701> 0 100<22 230> 1311 100<38 230 440 635>
VStem: 230 210<142 1311> 1026 86<191.419 366>
LayerCount: 4
Fore
SplineSet
22 0 m 1x78
 22 100 l 1
 230 100 l 1x78
 230 1311 l 1
 38 1311 l 1
 38 1411 l 1
 635 1411 l 1
 635 1311 l 1
 440 1311 l 1
 440 142 l 1
 648 142 l 2xb8
 1026 142 1006 165 1026 366 c 1
 1112 366 l 1
 1112 0 l 1
 22 0 l 1x78
EndSplineSet
Validated: 1
EndChar

StartChar: M
Encoding: 77 77 38
Width: 1781
VWidth: 2048
Flags: W
HStem: 0 100<49 242 357 535 1143 1333 1543 1731> 1311 100<56 242 1543 1731>
VStem: 242 115<100 1247> 1333 210<100 1208>
LayerCount: 4
Fore
SplineSet
1333 100 m 1
 1333 1208 l 1
 862 -14 l 1
 813 -14 l 1
 357 1247 l 1
 357 100 l 1
 535 100 l 1
 535 0 l 1
 49 0 l 1
 49 100 l 1
 242 100 l 1
 242 1311 l 1
 56 1311 l 1
 56 1411 l 1
 505 1411 l 1
 892 366 l 1
 1305 1411 l 1
 1731 1411 l 1
 1731 1311 l 1
 1543 1311 l 1
 1543 100 l 1
 1731 100 l 1
 1731 0 l 1
 1143 0 l 1
 1143 100 l 1
 1333 100 l 1
EndSplineSet
Validated: 1
EndChar

StartChar: N
Encoding: 78 78 39
Width: 1622
VWidth: 2048
Flags: W
HStem: -33 21G<1272.21 1345> 0 100<39 227 342 525> 1311 100<44 226.483 1042 1230 1345 1548>
VStem: 227 115<100 1165> 1230 115<385 1311>
LayerCount: 4
Fore
SplineSet
1230 385 m 1
 1230 1311 l 1
 1042 1311 l 1
 1042 1411 l 1
 1548 1411 l 1
 1548 1311 l 1
 1345 1311 l 1
 1345 -33 l 1
 1288 -33 l 1
 342 1165 l 1
 342 100 l 1
 525 100 l 1
 525 0 l 1
 39 0 l 1
 39 100 l 1
 227 100 l 1
 227 1267 l 1
 216 1282 203 1297 186 1311 c 1
 44 1311 l 1
 44 1411 l 1
 419 1411 l 1
 1230 385 l 1
EndSplineSet
Validated: 1
EndChar

StartChar: O
Encoding: 79 79 40
Width: 1770
VWidth: 2048
Flags: W
HStem: -47 125<720.513 1113.97> 1333 123<645.115 1048.89>
VStem: 110 229<482.159 953.56> 1412 238<474.67 938.004>
LayerCount: 4
Fore
SplineSet
110 670 m 0
 110 797 134 909 177 1006 c 0
 215 1094 326 1236 465 1327 c 0
 586 1406 724 1456 910 1456 c 0
 1348 1456 1650 1136 1650 741 c 0
 1650 518 1559 340 1445 210 c 0
 1296 41 1096 -47 882 -47 c 0
 496 -47 110 188 110 670 c 0
339 750 m 0
 339 329 648 78 935 78 c 0
 1070 78 1202 156 1292 282 c 0
 1370 391 1412 536 1412 685 c 0
 1412 867 1345 1055 1189 1194 c 0
 1092 1280 971 1333 841 1333 c 0
 568 1333 339 1077 339 750 c 0
EndSplineSet
Validated: 1
EndChar

StartChar: P
Encoding: 80 80 41
Width: 1216
VWidth: 2048
Flags: W
HStem: 0 100<44 229 439 630> 582 100<460.744 766.38> 1311 100<39 229 439 778.213>
VStem: 229 210<100 642 713.168 1311> 908 213<836.644 1199.93>
LayerCount: 4
Fore
SplineSet
229 100 m 1
 229 1311 l 1
 39 1311 l 1
 39 1411 l 1
 627 1411 l 2
 983 1411 1121 1256 1121 1024 c 0
 1121 768 926 582 672 582 c 0
 522 582 439 642 439 642 c 1
 439 100 l 1
 630 100 l 1
 630 0 l 1
 44 0 l 1
 44 100 l 1
 229 100 l 1
624 682 m 0
 788 682 908 842 908 1026 c 0
 908 1256 752 1311 556 1311 c 2
 439 1311 l 1
 439 739 l 1
 439 739 520 682 624 682 c 0
EndSplineSet
Validated: 1
EndChar

StartChar: Q
Encoding: 81 81 42
Width: 1718
VWidth: 2048
Flags: W
HStem: -398 83<1526.96 1643> -52 130<733.418 1021.92> 1332 130<639.517 1046.73>
VStem: 84 234<502.023 937.118> 1398 232<480.008 957.952>
LayerCount: 4
Fore
SplineSet
1398 696 m 0
 1398 1121 1100 1332 828 1332 c 0
 501 1332 318 987 318 747 c 0
 318 467 475 267 649 162 c 0
 747 103 837 78 919 78 c 0
 1024 78 1114 119 1188 180 c 0
 1309 280 1398 454 1398 696 c 0
970 -41 m 0
 949 -42 906 -52 864 -52 c 0
 462 -52 84 204 84 702 c 0
 84 1050 394 1462 878 1462 c 0
 1298 1462 1630 1115 1630 728 c 0
 1630 237 1133 17 1133 17 c 1
 1135 16 1279 -82 1514 -265 c 0
 1559 -300 1574 -303 1617 -315 c 0
 1643 -322 1643 -319 1643 -355 c 0
 1643 -394 1641 -391 1609 -398 c 0
 1592 -402 1567 -403 1525 -403 c 0
 1390 -403 1271 -327 1174 -238 c 0
 1120 -188 1057 -137 1018 -90 c 0
 993 -59 974 -41 970 -41 c 0
EndSplineSet
Validated: 1
EndChar

StartChar: R
Encoding: 82 82 43
Width: 1417
VWidth: 2048
Flags: W
HStem: 0 100<49 240 450 642 1226.01 1378> 680 82<452.599 667.875> 1311 100<52 240 445 783.699>
VStem: 240 210<100 694 769.787 1307> 918 207<915.165 1185.25>
LayerCount: 4
Fore
SplineSet
826 720 m 1
 899 632 934 606 1226 137 c 0
 1247 103 1265 100 1303 100 c 2
 1378 100 l 1
 1378 0 l 1
 1155 0 l 2
 1089 0 1049 25 1003 94 c 0
 889 266 714 632 626 680 c 1
 526 680 506 688 450 694 c 1
 450 100 l 1
 646 100 l 1
 642 0 l 1
 49 0 l 1
 48 100 l 1
 240 100 l 1
 240 1311 l 1
 52 1311 l 1
 50 1411 l 1
 677 1411 l 2
 853 1411 1125 1368 1125 1104 c 0
 1125 800 826 720 826 720 c 1
918 1042 m 0
 918 1133 859 1307 594 1307 c 2
 445 1307 l 1
 445 785 l 1
 445 785 478 762 612 762 c 0
 832 762 918 901 918 1042 c 0
EndSplineSet
Validated: 1
EndChar

StartChar: S
Encoding: 83 83 44
Width: 1094
VWidth: 2048
Flags: W
HStem: -43 155<358.721 711.525> 1324 134<352.513 674.898>
VStem: 76 169<994.983 1214.23> 83 111<243.048 444> 820 86<1020 1197.03> 831 167<229.487 477.294>
LayerCount: 4
Fore
SplineSet
83 118 m 1xd4
 92 446 l 1
 191 444 l 1
 194 375 l 2
 197 296 223 256 260 224 c 0
 348 148 454 112 551 112 c 0
 702 112 831 200 831 363 c 0xd4
 831 530 640 557 495 617 c 0
 377 666 76 752 76 1051 c 0
 76 1176 142 1255 228 1331 c 0
 320 1413 442 1458 547 1458 c 0
 666 1458 788 1415 875 1361 c 0
 906 1341 908 1332 908 1332 c 1
 906 1018 l 1
 820 1020 l 1
 818 1083 l 2
 817 1125 813 1182 724 1247 c 0
 650 1301 573 1324 502 1324 c 0
 360 1324 245 1230 245 1102 c 0xe8
 245 979 346 943 584 847 c 0
 781 768 998 707 998 425 c 0
 998 165 771 -43 493 -43 c 0
 308 -43 178 39 83 118 c 1xd4
EndSplineSet
Validated: 1
EndChar

StartChar: T
Encoding: 84 84 45
Width: 1376
VWidth: 2048
Flags: MW
HStem: 0 100<346 583 793 1015> 1262 129<217.793 583 793 1158.21>
VStem: 70 100<1075 1249.39> 583 210<100 1262> 1206 100<1075 1249.39>
LayerCount: 4
Fore
SplineSet
1306 1421 m 1
 1306 1075 l 1
 1206 1075 l 1
 1204 1229 1182 1237 1159 1250 c 0
 1143 1259 1068 1262 951 1262 c 2
 793 1262 l 1
 793 100 l 1
 1015 100 l 1
 1015 0 l 1
 346 0 l 1
 345 100 l 1
 583 100 l 1
 583 1262 l 1
 425 1262 l 2
 308 1262 233 1259 217 1250 c 0
 194 1237 172 1229 170 1075 c 1
 70 1075 l 1
 70 1421 l 1
 70 1421 463 1391 689 1391 c 2
 697 1391 l 2
 1021 1391 1306 1421 1306 1421 c 1
EndSplineSet
Validated: 1
EndChar

StartChar: U
Encoding: 85 85 46
Width: 1622
VWidth: 2048
Flags: W
HStem: -42 133<641.447 1036.53> 1311 100<38 235 445 636 1013 1201 1316 1500>
VStem: 235 210<271.664 1311> 1201 115<254.976 1311>
LayerCount: 4
Fore
SplineSet
1201 581 m 2
 1201 1311 l 1
 1013 1311 l 1
 1013 1411 l 1
 1500 1411 l 1
 1500 1311 l 1
 1316 1311 l 1
 1316 584 l 2
 1316 443 1310 296 1255 180 c 0
 1175 12 964 -42 818 -42 c 0
 352 -42 235 248 235 493 c 2
 235 1311 l 1
 38 1311 l 1
 37 1411 l 1
 636 1411 l 1
 638 1311 l 1
 445 1311 l 1
 445 552 l 2
 445 475 447 390 472 315 c 0
 519 171 684 91 844 91 c 0
 993 91 1138 161 1179 315 c 0
 1201 396 1201 491 1201 581 c 2
EndSplineSet
Validated: 1
EndChar

StartChar: V
Encoding: 86 86 47
Width: 1554
VWidth: 2048
Flags: W
HStem: -36 21G<682.5 825> 1311 100<31 190.539 420 602 1014 1200 1337 1521>
LayerCount: 4
Fore
SplineSet
1200 1317 m 1
 1014 1311 l 1
 1014 1411 l 1
 1521 1411 l 1
 1521 1311 l 1
 1337 1311 l 1
 1106 768 l 2
 984 480 864 177 786 -36 c 1
 746 -36 l 1
 619 305 531 545 174 1311 c 1
 31 1311 l 1
 31 1411 l 1
 604 1411 l 1
 602 1311 l 1
 420 1311 l 1
 550 996 737 581 813 341 c 1
 914 616 1126 1132 1200 1317 c 1
EndSplineSet
Validated: 1
EndChar

StartChar: W
Encoding: 87 87 48
Width: 2098
VWidth: 2048
Flags: W
HStem: -42 26G<615.774 696.022 1415.43 1476.08> 1311 100<18 192.606 406 600 827 989.623 1194 1360 1594 1761 1900.4 2070>
LayerCount: 4
Fore
SplineSet
1362 1411 m 1
 1360 1311 l 1
 1194 1311 l 1
 1195 1272 1458 502 1479 414 c 1
 1761 1311 l 1
 1594 1311 l 1
 1590 1411 l 1
 2070 1411 l 1
 2070 1311 l 1
 1917 1311 l 1
 1895 1257 1683 663 1567 282 c 2
 1470 -37 l 1
 1422 -37 l 1
 1070 1034 l 1
 774 237 l 2
 724 104 690 -42 690 -42 c 1
 622 -42 l 1
 509 321 l 2
 412 632 267 1066 180 1311 c 1
 18 1311 l 1
 18 1411 l 1
 600 1411 l 1
 600 1311 l 1
 406 1310 l 1
 705 398 l 1
 1008 1206 l 1
 991 1267 979 1291 970 1311 c 1
 827 1311 l 1
 826 1411 l 1
 1362 1411 l 1
EndSplineSet
Validated: 1
EndChar

StartChar: X
Encoding: 88 88 49
Width: 1546
VWidth: 2048
Flags: HW
HStem: 0 100<39 220 372 569 913 1104 1378 1507> 1311 100<110 263 530 721 993 1156 1302 1497>
LayerCount: 4
Fore
SplineSet
263 1311 m 1
 110 1311 l 1
 110 1411 l 1
 721 1411 l 1
 721 1311 l 1
 530 1311 l 1
 818 882 l 1
 1156 1311 l 1
 993 1311 l 1
 993 1411 l 1
 1497 1411 l 1
 1497 1311 l 1
 1302 1311 l 1
 892 785 l 1
 1378 100 l 5
 1507 100 l 1
 1507 0 l 1
 913 0 l 1
 913 100 l 1
 1104 100 l 1
 755 617 l 1
 372 100 l 1
 569 100 l 1
 569 0 l 1
 39 0 l 1
 39 100 l 1
 220 100 l 1
 690 714 l 1
 263 1311 l 1
EndSplineSet
Layer: 2
SplineSet
1067 1317 m 6
 983 1317 l 5
 983 1411 l 5
 1507 1411 l 5
 1507 1317 l 5
 1374 1317 l 6
 1311 1317 1289 1299 1260 1266 c 4
 1219 1221 1184 1171 885 788 c 5
 885 784 l 5
 1352 104 1350 106 1395 96 c 5
 1458 92 l 5
 1507 92 l 5
 1507 0 l 5
 913 0 l 5
 913 94 l 5
 1053 94 l 6
 1078 94 1096 101 1096 121 c 6
 1096 123 l 6
 1096 135 1090 146 758 627 c 5
 754 627 l 5
 410 168 389 137 389 117 c 4
 389 94 412 94 424 94 c 6
 569 94 l 5
 569 0 l 5
 39 0 l 5
 39 94 l 5
 156 94 l 6
 201 94 218 110 238 133 c 4
 287 188 330 248 688 719 c 5
 688 727 l 5
 315 1264 331 1239 311 1262 c 4
 268 1311 242 1317 197 1317 c 6
 115 1317 l 5
 115 1411 l 5
 721 1411 l 5
 721 1317 l 5
 588 1317 l 6
 576 1317 547 1317 547 1292 c 4
 547 1282 571 1239 614 1176 c 6
 815 883 l 5
 819 883 l 5
 1100 1250 1110 1266 1110 1286 c 4
 1110 1311 1090 1317 1067 1317 c 6
EndSplineSet
EndChar

StartChar: Y
Encoding: 89 89 50
Width: 1550
VWidth: 2048
Flags: W
HStem: 0 102<425 661 871 1094> 1311 100<34 182 447 612 989 1191 1360 1511>
VStem: 661 210<100 656>
LayerCount: 4
Fore
SplineSet
1191 1311 m 1
 989 1311 l 1
 989 1411 l 1
 1511 1411 l 1
 1511 1311 l 1
 1360 1311 l 1
 871 656 l 1
 871 100 l 1
 1094 102 l 1
 1094 0 l 1
 425 0 l 1
 425 102 l 1
 661 100 l 1
 661 670 l 1
 182 1311 l 1
 34 1311 l 1
 30 1411 l 1
 612 1411 l 1
 612 1311 l 1
 447 1311 l 1
 815 792 l 1
 1191 1311 l 1
EndSplineSet
Validated: 1
EndChar

StartChar: Z
Encoding: 90 90 51
Width: 1298
VWidth: 2048
Flags: MW
HStem: 0 138<380 1078.96> 1272 125<234.098 910.696>
VStem: 110 90<1059 1237.39> 1126 90<187.813 367>
LayerCount: 4
Fore
SplineSet
380 138 m 1
 852 138 l 2
 1112 138 1098 177 1126 367 c 1
 1216 367 l 1
 1216 0 l 1
 58 0 l 1
 49 20 l 1
 915 1272 l 1
 481 1272 l 2
 201 1272 230 1258 200 1059 c 1
 110 1059 l 1
 110 1401 l 1
 300 1401 481 1397 660 1397 c 0
 852 1397 1041 1401 1232 1415 c 1
 1248 1378 l 1
 380 138 l 1
EndSplineSet
Validated: 1
EndChar

StartChar: zero
Encoding: 48 48 52
Width: 1214
VWidth: 2048
Flags: MW
LayerCount: 4
Fore
SplineSet
1153 510 m 0
 1153 252 928 -35 588 -35 c 0
 281 -35 61 197 61 461 c 0
 61 756 324 995 627 995 c 2
 631 995 l 1
 930 993 1153 768 1153 510 c 0
578 895 m 0
 381 895 264 693 264 498 c 0
 264 250 442 59 637 59 c 0
 823 59 948 232 948 449 c 0
 948 725 754 895 578 895 c 0
EndSplineSet
Validated: 1
Layer: 3
SplineSet
1153 510 m 0
 1153 252 928 -35 588 -35 c 0
 281 -35 61 197 61 461 c 0
 61 756 324 995 627 995 c 2
 631 995 l 1
 930 993 1153 768 1153 510 c 0
578 895 m 0
 381 895 264 693 264 498 c 0
 264 250 442 59 637 59 c 0
 823 59 948 232 948 449 c 0
 948 725 754 895 578 895 c 0
EndSplineSet
Validated: 1
EndChar

StartChar: one
Encoding: 49 49 53
Width: 743
VWidth: 2048
Flags: MW
LayerCount: 4
Fore
SplineSet
25 82 m 1
 199 82 l 2
 226 82 264 82 268 133 c 1
 272 209 274 284 274 360 c 2
 274 592 l 2
 274 643 272 832 264 850 c 1
 254 868 229 870 213 870 c 2
 25 870 l 1
 25 952 l 1
 719 952 l 1
 719 870 l 1
 532 870 l 2
 512 870 477 870 475 827 c 0
 471 749 469 670 469 592 c 2
 469 293 l 2
 469 103 473 82 541 82 c 2
 719 82 l 1
 719 0 l 1
 25 0 l 1
 25 82 l 1
EndSplineSet
Validated: 1
Layer: 3
SplineSet
25 82 m 1
 199 82 l 2
 226 82 264 82 268 133 c 1
 272 209 274 284 274 360 c 2
 274 592 l 2
 274 643 272 832 264 850 c 1
 254 868 229 870 213 870 c 2
 25 870 l 1
 25 952 l 1
 719 952 l 1
 719 870 l 1
 532 870 l 2
 512 870 477.102307565 869.994997512 475 827 c 0
 471.185624354 748.990923607 469 670 469 592 c 2
 469 293 l 2
 469 103 473 82 541 82 c 2
 719 82 l 1
 719 0 l 1
 25 0 l 1
 25 82 l 1
EndSplineSet
Validated: 1
EndChar

StartChar: two
Encoding: 50 50 54
Width: 940
VWidth: 2048
Flags: MW
LayerCount: 4
Fore
SplineSet
82 645 m 1
 225 963 374 1001 498 1001 c 2
 500 1001 l 2
 684 1001 836 891 836 721 c 2
 836 719 l 2
 836 502 551 280 389 174 c 1
 391 166 l 1
 860 166 l 2
 864 166 868 164 868 160 c 0
 868 154 809 14 807 10 c 0
 801 0 794 0 788 0 c 2
 84 0 l 2
 74 0 66 2 66 12 c 0
 66 22 71 22 231 168 c 0
 459 376 631 512 631 678 c 0
 631 778 557 864 453 864 c 0
 326 864 239 747 147 610 c 1
 82 645 l 1
EndSplineSet
Validated: 1
Layer: 3
SplineSet
836 719 m 2
 836 502 551 280 389 174 c 1
 391 166 l 1
 860 166 l 2
 864 166 868 164 868 160 c 0
 868 154 809 14 807 10 c 0
 801 0 794 0 788 0 c 2
 84 0 l 2
 74 0 66 2 66 12 c 0
 66 22 71.4795607583 22.4725817444 231 168 c 0
 459 376 631 512 631 678 c 0
 631 778 557 864 453 864 c 0
 326 864 239 747 147 610 c 1
 82 645 l 1
 105 696 190 878 311 952 c 1
 366 987 432 1001 498 1001 c 2
 500 1001 l 2
 684 1001 836 891 836 721 c 2
 836 719 l 2
EndSplineSet
Validated: 1
EndChar

StartChar: three
Encoding: 51 51 55
Width: 833
VWidth: 2048
Flags: MW
LayerCount: 4
Fore
SplineSet
461 993 m 2
 604 993 707 912 707 795 c 0
 707 676 594 578 481 498 c 1
 483 492 l 1
 487 492 l 2
 626 492 772 379 772 195 c 0
 772 -37 525 -292 -2 -385 c 1
 -20 -299 l 1
 254 -244 563 -78 563 145 c 0
 563 256 485 338 358 338 c 0
 315 338 247 328 141 297 c 1
 109 367 l 1
 265 435 506 590 506 737 c 0
 506 788 473 856 371 856 c 0
 267 856 166 793 113 754 c 1
 66 819 l 1
 209 960 375 993 459 993 c 2
 461 993 l 2
EndSplineSet
Validated: 1
Layer: 3
SplineSet
461 993 m 2
 604 993 707 912 707 795 c 0
 707 676 594 578 481 498 c 1
 483 492 l 1
 487 492 l 2
 626 492 772 379 772 195 c 0
 772 27 651 -121 471 -223 c 0
 326 -305 162 -356 -2 -385 c 1
 -20 -299 l 1
 254 -244 563 -78 563 145 c 0
 563 256 485 338 358 338 c 0
 315 338 247 328 141 297 c 1
 109 367 l 1
 265 435 506 590 506 737 c 0
 506 788 473 856 371 856 c 0
 267 856 166 793 113 754 c 1
 66 819 l 1
 209 960 375 993 459 993 c 2
 461 993 l 2
EndSplineSet
Validated: 1
EndChar

StartChar: four
Encoding: 52 52 56
Width: 1060
VWidth: 2048
Flags: MW
LayerCount: 4
Fore
SplineSet
629 141 m 1
 629 662 l 1
 625 664 l 1
 217 145 l 1
 219 141 l 1
 629 141 l 1
788 1008 m 0
 794 1008 803 1005 803 989 c 2
 803 141 l 1
 1004 141 l 1
 1004 0 l 1
 801 0 l 1
 801 -403 l 1
 631 -403 l 1
 631 0 l 1
 23 0 l 2
 13 0 4 2 4 12 c 0
 4 18 8 25 10 27 c 0
 779 1008 774 1008 788 1008 c 0
EndSplineSet
Validated: 1
Layer: 3
SplineSet
629 141 m 1
 629 662 l 1
 625 664 l 1
 217 145 l 1
 219 141 l 1
 629 141 l 1
788 1008 m 0
 794 1008 803 1005 803 989 c 2
 803 141 l 1
 1004 141 l 1
 1004 0 l 1
 801 0 l 1
 801 -403 l 1
 631 -403 l 1
 631 0 l 1
 23 0 l 2
 13 0 4 2 4 12 c 0
 4 18 8 25 10 27 c 0
 776 1004 774 1002 780 1006 c 0
 782 1008 784 1008 788 1008 c 0
EndSplineSet
Validated: 1
EndChar

StartChar: five
Encoding: 53 53 57
Width: 778
VWidth: 2048
Flags: MW
LayerCount: 4
Fore
SplineSet
-10 -334 m 1
 247 -292 524 -95 524 168 c 0
 524 313 428 422 266 422 c 0
 153 422 39 375 33 375 c 0
 25 375 20 381 20 391 c 0
 20 403 31 422 41 453 c 1
 223 951 219 952 233 952 c 2
 729 952 l 2
 739 952 748 950 748 942 c 0
 748 928 719 874 686 788 c 0
 682 780 678 778 670 778 c 2
 276 778 l 1
 209 594 l 1
 211 590 l 1
 248 598 287 602 326 602 c 2
 328 602 l 2
 557 602 713 454 713 233 c 2
 713 231 l 2
 713 -99 401 -340 6 -418 c 1
 -10 -334 l 1
EndSplineSet
Validated: 1
Layer: 3
SplineSet
328 602 m 2
 557 602 713 454 713 233 c 2
 713 231 l 2
 713 -99 401 -340 6 -418 c 1
 -10 -334 l 1
 178 -303 346 -192 424 -96 c 1
 475 -35 524 64 524 168 c 0
 524 313 428 422 266 422 c 0
 153 422 39 375 33 375 c 0
 25 375 20 381 20 391 c 0
 20 403 31 422 41 453 c 1
 223 951 219 952 233 952 c 2
 729 952 l 2
 739 952 748 950 748 942 c 0
 748 928 719 874 686 788 c 0
 682 780 678 778 670 778 c 2
 276 778 l 1
 209 594 l 1
 211 590 l 1
 248 598 287 602 326 602 c 2
 328 602 l 2
EndSplineSet
Validated: 1
EndChar

StartChar: six
Encoding: 54 54 58
Width: 1046
VWidth: 2048
Flags: MW
LayerCount: 4
Fore
SplineSet
518 -61 m 0
 283 -61 61 123 61 449 c 0
 61 732 215 970 381 1118 c 0
 531 1251 729 1351 915 1421 c 1
 948 1339 l 1
 721 1247 270 1002 270 494 c 0
 270 228 379 29 541 29 c 0
 639 29 786 118 786 401 c 0
 786 661 626 719 530 719 c 0
 469 719 407 696 360 655 c 1
 326 696 l 1
 400 770 514 836 639 836 c 0
 809 836 985 706 985 434 c 2
 985 432 l 2
 985 123 754 -61 518 -61 c 0
EndSplineSet
Validated: 1
Layer: 3
SplineSet
985 432 m 2
 985 123 754 -61 518 -61 c 0
 395 -61 272 -8 190 82 c 0
 102 180 61 316 61 449 c 0
 61 732 215 970 381 1118 c 0
 531 1251 729 1351 915 1421 c 1
 948 1339 l 1
 721 1247 270 1002 270 494 c 0
 270 228 379 29 541 29 c 0
 639 29 786 118 786 401 c 0
 786 661 626 719 530 719 c 0
 469 719 407 696 360 655 c 1
 326 696 l 1
 400 770 514 836 639 836 c 0
 809 836 985 706 985 434 c 2
 985 432 l 2
EndSplineSet
Validated: 1
EndChar

StartChar: seven
Encoding: 55 55 59
Width: 958
VWidth: 2048
Flags: MW
LayerCount: 4
Fore
SplineSet
37 766 m 0
 37 768 107 944 111 948 c 0
 113 950 117 952 121 952 c 2
 930 952 l 2
 936 952 942 950 942 942 c 0
 942 911 651 451 403 -389 c 0
 399 -403 391 -408 375 -408 c 2
 209 -408 l 2
 199 -408 190 -405 190 -395 c 0
 190 -393 390 140 752 754 c 1
 750 758 l 1
 47 758 l 2
 39 758 37 762 37 766 c 0
EndSplineSet
Validated: 1
Layer: 3
SplineSet
37 766 m 0
 37 768 107 944 111 948 c 0
 113 950 117 952 121 952 c 2
 930 952 l 2
 936 952 942 950 942 942 c 0
 942 911 651 451 403 -389 c 0
 398.877197909 -402.964329662 391 -408 375 -408 c 2
 209 -408 l 2
 199 -408 190 -405 190 -395 c 0
 190 -393 390 140 752 754 c 1
 750 758 l 1
 47 758 l 2
 39 758 37 762 37 766 c 0
EndSplineSet
Validated: 1
EndChar

StartChar: eight
Encoding: 56 56 60
Width: 1056
VWidth: 2048
Flags: MW
LayerCount: 4
Fore
SplineSet
98 1006 m 0
 98 1182 258 1374 539 1374 c 0
 762 1374 934 1247 934 1057 c 0
 934 932 846 811 711 741 c 1
 711 737 l 1
 928 671 995 512 995 379 c 0
 995 162 830 -45 508 -45 c 0
 248 -45 61 110 61 313 c 0
 61 497 217 619 344 672 c 1
 344 678 l 1
 180 739 98 881 98 1006 c 0
229 322 m 0
 229 166 364 43 518 43 c 0
 680 43 813 176 813 330 c 0
 813 473 701 543 584 592 c 0
 537 612 473 633 461 633 c 0
 436 633 229 510 229 322 c 0
782 1042 m 0
 782 1173 657 1288 524 1288 c 0
 391 1288 287 1180 287 1065 c 0
 287 866 582 782 602 782 c 0
 627 782 782 890 782 1042 c 0
EndSplineSet
Validated: 1
Layer: 3
SplineSet
98 1006 m 0
 98 1182 258 1374 539 1374 c 0
 762 1374 934 1247 934 1057 c 0
 934 932 846 811 711 741 c 1
 711 737 l 1
 928 671 995 512 995 379 c 0
 995 162 830 -45 508 -45 c 0
 248 -45 61 110 61 313 c 0
 61 497 217 619 344 672 c 1
 344 678 l 1
 180 739 98 881 98 1006 c 0
229 322 m 0
 229 166 364 43 518 43 c 0
 680 43 813 176 813 330 c 0
 813 473 700.859134815 542.666325611 584 592 c 0
 536.943276543 611.865636319 473 633 461 633 c 0
 436 633 229 510 229 322 c 0
782 1042 m 0
 782 1173 657 1288 524 1288 c 0
 391 1288 287 1180 287 1065 c 0
 287 866 582 782 602 782 c 0
 627 782 782 890 782 1042 c 0
EndSplineSet
Validated: 1
EndChar

StartChar: nine
Encoding: 57 57 61
Width: 1079
VWidth: 2048
Flags: MW
LayerCount: 4
Fore
SplineSet
1018 508 m 0
 1018 76 555 -280 80 -438 c 1
 47 -346 l 1
 336 -254 558 -90 664 45 c 1
 770 182 807 340 807 483 c 0
 807 794 631 907 512 907 c 2
 510 907 l 2
 412 907 262 838 262 535 c 0
 262 265 416 217 516 217 c 0
 594 217 639 246 684 291 c 1
 719 260 l 1
 647 119 503 104 442 104 c 0
 213 104 61 277 61 506 c 0
 61 803 276 989 530 989 c 0
 784 989 1018 809 1018 508 c 0
EndSplineSet
Validated: 1
Layer: 3
SplineSet
1018 508 m 0
 1018 76 555 -280 80 -438 c 1
 47 -346 l 1
 336 -254 558 -90 664 45 c 1
 770 182 807 340 807 483 c 0
 807 794 631 907 512 907 c 2
 510 907 l 2
 412 907 262 838 262 535 c 0
 262 265 416 217 516 217 c 0
 594 217 639 246 684 291 c 1
 719 260 l 1
 647 119 503 104 442 104 c 0
 213 104 61 277 61 506 c 0
 61 803 276 989 530 989 c 0
 784 989 1018 809 1018 508 c 0
EndSplineSet
Validated: 1
EndChar

StartChar: colon
Encoding: 58 58 62
Width: 614
VWidth: 2048
Flags: HMW
LayerCount: 4
Fore
SplineSet
331 247 m 0
 405 247 470 186 470 106 c 0
 470 28 405 -33 331 -33 c 0
 257 -33 192 28 192 106 c 0
 192 186 257 247 331 247 c 0
331 900 m 0
 405 900 470 839 470 759 c 0
 470 681 405 620 331 620 c 0
 257 620 192 681 192 759 c 0
 192 839 257 900 331 900 c 0
EndSplineSet
Validated: 1
EndChar

StartChar: semicolon
Encoding: 59 59 63
Width: 614
VWidth: 2048
Flags: HMW
LayerCount: 4
Fore
SplineSet
318 -5 m 0
 266 -5 171 9 171 109 c 0
 171 174 226 250 320 250 c 0
 425 250 486 167 486 67 c 0
 486 -77 372 -211 200 -239 c 1
 184 -142 l 1
 184 -142 349 -114 349 -6 c 1
 349 -6 337 -5 318 -5 c 0
331 900 m 0
 405 900 470 839 470 759 c 0
 470 681 405 620 331 620 c 0
 257 620 192 681 192 759 c 0
 192 839 257 900 331 900 c 0
EndSplineSet
Validated: 1
EndChar

StartChar: question
Encoding: 63 63 64
Width: 921
VWidth: 2048
Flags: HMW
LayerCount: 4
Fore
SplineSet
507 247 m 0
 581 247 646 186 646 106 c 0
 646 28 581 -33 507 -33 c 0
 433 -33 368 28 368 106 c 0
 368 186 433 247 507 247 c 0
460 313 m 0
 452 338 444 374 444 426 c 0
 444 615 522 740 602 860 c 0
 642 919 680 1013 680 1094 c 0
 680 1207 592 1256 506 1256 c 0
 423 1256 341 1210 341 1132 c 0
 341 1097 356 1065 356 1028 c 0
 356 932 309 877 252 877 c 0
 206 877 148 912 148 992 c 0
 148 1244 369 1381 568 1381 c 0
 753 1381 880 1266 880 1100 c 0
 880 1022 852 931 788 837 c 0
 605 566 550 570 530 316 c 0
 527 276 516 262 504 262 c 0
 488 262 469 286 460 313 c 0
EndSplineSet
Validated: 1
EndChar

StartChar: exclam
Encoding: 33 33 65
Width: 756
VWidth: 2048
Flags: HMW
LayerCount: 4
Fore
SplineSet
397 247 m 0
 471 247 536 186 536 106 c 0
 536 28 471 -33 397 -33 c 0
 323 -33 258 28 258 106 c 0
 258 186 323 247 397 247 c 0
525 1311 m 0
 525 1243 474 730 444 337 c 1
 374 337 l 1
 317 926 283 1237 283 1311 c 0
 283 1429 371 1451 406 1451 c 0
 469 1451 525 1415 525 1311 c 0
EndSplineSet
Validated: 1
EndChar

StartChar: comma
Encoding: 44 44 67
Width: 614
VWidth: 2048
Flags: HMW
LayerCount: 4
Fore
SplineSet
318 -5 m 0
 266 -5 171 9 171 109 c 0
 171 174 226 250 320 250 c 0
 425 250 486 167 486 67 c 0
 486 -77 372 -211 200 -239 c 1
 184 -142 l 1
 184 -142 349 -114 349 -6 c 1
 349 -6 337 -5 318 -5 c 0
EndSplineSet
Validated: 1
EndChar

StartChar: hyphen
Encoding: 45 45 68
Width: 647
VWidth: 2048
Flags: HMW
LayerCount: 4
Fore
SplineSet
124 614 m 2
 523 614 l 2
 576 614 580 611 580 570 c 2
 580 502 l 2
 580 447 577 442 532 442 c 2
 124 442 l 2
 72 442 68 446 68 494 c 2
 68 562 l 2
 68 610 72 614 124 614 c 2
EndSplineSet
Validated: 1
EndChar

StartChar: period
Encoding: 46 46 69
Width: 614
VWidth: 2048
Flags: HMW
LayerCount: 4
Fore
SplineSet
307 247 m 0
 381 247 446 186 446 106 c 0
 446 28 381 -33 307 -33 c 0
 233 -33 168 28 168 106 c 0
 168 186 233 247 307 247 c 0
EndSplineSet
Validated: 1
EndChar

StartChar: parenleft
Encoding: 40 40 70
Width: 614
VWidth: 2048
Flags: MW
LayerCount: 4
Fore
SplineSet
262 606 m 0
 262 317 324 -5 537 -281 c 1
 457 -342 l 1
 254 -106 76 233 76 606 c 0
 76 985 258 1323 457 1554 c 1
 537 1493 l 1
 324 1217 262 895 262 606 c 0
EndSplineSet
Validated: 1
Layer: 3
SplineSet
262 606 m 0
 262 317 324 -5 537 -281 c 1
 457 -342 l 1
 254 -106 76 233 76 606 c 0
 76 985 258 1323 457 1554 c 1
 537 1493 l 1
 324 1217 262 895 262 606 c 0
EndSplineSet
Validated: 1
EndChar

StartChar: parenright
Encoding: 41 41 71
Width: 614
VWidth: 2048
Flags: MW
LayerCount: 4
Fore
SplineSet
539 606 m 0
 539 227 357 -111 158 -342 c 1
 78 -281 l 1
 291 -5 352 317 352 606 c 0
 352 895 291 1217 78 1493 c 1
 158 1554 l 1
 361 1318 539 979 539 606 c 0
EndSplineSet
Validated: 1
Layer: 3
SplineSet
539 606 m 0
 539 227 357 -111 158 -342 c 1
 78 -281 l 1
 291 -5 352 317 352 606 c 0
 352 895 291 1217 78 1493 c 1
 158 1554 l 1
 361 1318 539 979 539 606 c 0
EndSplineSet
Validated: 1
EndChar

StartChar: asterisk
Encoding: 42 42 72
Width: 828
VWidth: 2048
Flags: HMWO
LayerCount: 4
Fore
SplineSet
351 1485 m 1
 377 1488 403 1492 427 1492 c 0
 478 1492 526 1480 586 1454 c 1
 466 1182 l 1
 742 1310 l 1
 778 1245 787 1187 787 1142 c 0
 787 1121 783 1101 782 1087 c 1
 483 1118 l 1
 696 910 l 1
 644 855 577 812 497 797 c 1
 423 1085 l 1
 286 819 l 1
 207 852 149 907 109 976 c 1
 371 1130 l 1
 72 1181 l 1
 79 1247 109 1331 174 1389 c 1
 400 1191 l 1
 351 1485 l 1
EndSplineSet
Layer: 2
SplineSet
303.516601562 1315.52636719 m 5
 372.65234375 1325.5390625 425.625 1322.91210938 499.0703125 1290.38769531 c 5
 399.154296875 1066.2421875 l 5
 627.131835938 1170.77050781 l 5
 671.401367188 1091.61132812 664.565429688 1024.953125 661.25390625 987.09765625 c 5
 413.462890625 1011.78808594 l 5
 590.139648438 839.735351562 l 5
 547.017578125 794.3203125 491.903320312 760.997070312 425.495117188 747.735351562 c 5
 362.943359375 985.08984375 l 5
 251.421875 765.975585938 l 5
 186.506835938 792.735351562 137.282226562 838.198242188 104.133789062 895.3046875 c 5
 320.991210938 1021.88574219 l 5
 69.7880859375 1064.94433594 l 5
 74.5810546875 1119.734375 103.943359375 1191.44824219 158.372070312 1239.88867188 c 5
 343.541992188 1073.11621094 l 5
 303.516601562 1315.52636719 l 5
279 1309 m 1
 347 1325 400 1327 476 1301 c 1
 396 1069 l 1
 614 1193 l 1
 665 1118 664 1051 664 1013 c 1
 415 1016 l 1
 606 860 l 1
 567 811 515 773 450 754 c 1
 367 985 l 1
 275 757 l 1
 208 778 155 819 117 873 c 1
 322 1018 l 1
 68 1039 l 1
 68 1094 91 1168 141 1221 c 1
 340 1071 l 1
 279 1309 l 1
653.845845849 1022.79120772 m 1
 388.807617188 1025.96679688 l 1
 387.904296875 1024.45117188 l 1
 591.657957702 858.685106967 l 0
 557.012892316 816.417432192 509.987469734 784.094702355 455.904311549 766.878247463 c 0
 368.8515625 1010.609375 l 1
 367.0546875 1010.67480469 l 1
 269.048785348 769.220565257 l 0
 212.786428506 788.719454904 164.59975441 824.702369558 130.694320731 871.151798858 c 1
 347.952148438 1024.55371094 l 1
 347.272460938 1026.21875 l 1
 78.4503672247 1047.72402312 l 0
 81.9175427148 1108.09414961 105.224896057 1163.36406494 142.157610114 1207.50728002 c 1
 354.34765625 1047.99414062 l 1
 355.965820312 1050 l 1
 290.943246372 1301.41958919 l 1
 314.874960097 1307.66721539 340.037545878 1311 366 1311 c 0
 399.988918573 1311 432.606950014 1305.28797029 462.887028957 1294.80167128 c 0
 379.02734375 1050 l 1
 381.3515625 1048.91699219 l 1
 610.249275323 1179.83954757 l 0
 637.971025312 1136.96631092 654 1086.28486194 654 1032 c 0
 654 1028.91853514 653.948350906 1025.84868132 653.845845849 1022.79120772 c 1
582 1159 m 0
 623 1159 659 1122 659 1069 c 0
 659 1026 631 995 586 995 c 0
 576 995 563 997 561 997 c 2
 391 1014 l 2
 381 1014 369 1018 369 1030 c 0
 369 1042 383 1049 408 1065 c 0
 512 1128 551 1159 582 1159 c 0
555 811 m 0
 555 762 506 727 465 727 c 0
 408 727 395 781 393 797 c 1
 354 969 l 2
 354 971 352 975 352 979 c 0
 352 987 359 995 369 995 c 0
 375 995 381 991 387 987 c 0
 541 854 555 852 555 811 c 0
182 743 m 0
 135 743 92 788 92 829 c 0
 92 870 127 891 141 897 c 1
 295 989 299 993 307 993 c 0
 317 993 324 985 324 977 c 0
 324 971 324 973 254 805 c 0
 242 774 225 743 182 743 c 0
25 1108 m 0
 25 1149 55 1198 102 1198 c 0
 141 1198 152 1182 293 1055 c 0
 295 1053 305 1046 305 1036 c 0
 305 1020 289 1020 281 1020 c 2
 109 1032 l 1
 99 1034 25 1034 25 1108 c 0
354 1346 m 0
 401 1346 438 1317 438 1274 c 0
 438 1256 432 1239 428 1229 c 0
 354 1057 356 1051 340 1051 c 0
 324 1051 322 1069 322 1071 c 0
 283 1231 274 1252 274 1272 c 0
 274 1317 311 1346 354 1346 c 0
EndSplineSet
EndChar

StartChar: .notdef
Encoding: 65536 -1 73
Width: 957
VWidth: 2048
Flags: HMW
LayerCount: 4
Fore
SplineSet
477 247 m 0
 403 247 338 186 338 106 c 0
 338 28 403 -33 477 -33 c 0
 551 -33 616 28 616 106 c 0
 616 186 551 247 477 247 c 0
430 313 m 0
 439 286 458 262 474 262 c 0
 486 262 497 276 500 316 c 0
 520 570 575 566 758 837 c 0
 822 931 850 1022 850 1100 c 0
 850 1266 723 1381 538 1381 c 0
 339 1381 118 1244 118 992 c 0
 118 912 176 877 222 877 c 0
 279 877 326 932 326 1028 c 0
 326 1065 311 1097 311 1132 c 0
 311 1210 393 1256 476 1256 c 0
 562 1256 650 1207 650 1094 c 0
 650 1013 612 919 572 860 c 0
 492 740 414 615 414 426 c 0
 414 374 422 338 430 313 c 0
50 1440 m 1
 910 1440 l 1
 910 -112 l 1
 50 -112 l 1
 50 1440 l 1
EndSplineSet
EndChar

StartChar: quoteright
Encoding: 8217 8217 74
Width: 476
VWidth: 0
Flags: W
HStem: 984 21G<172.25 211> 1207 235<163.163 276.196>
VStem: 279 133<1122.83 1326.5>
LayerCount: 4
Fore
SplineSet
412 1265 m 0
 412 1081 236 1013 186 984 c 1
 142 1048 l 1
 142 1048 279 1117 279 1165 c 0
 279 1192 246 1202 231 1207 c 0
 182 1225 138 1257 138 1333 c 0
 138 1402 196 1442 259 1442 c 0
 332 1442 412 1388 412 1265 c 0
EndSplineSet
Validated: 1
EndChar

StartChar: emdash
Encoding: 8212 8212 75
Width: 1934
VWidth: 2048
Flags: W
HStem: 492 90<0 1934>
LayerCount: 4
Fore
SplineSet
0 492 m 25
 0 582 l 25
 1934 582 l 25
 1934 492 l 25
 0 492 l 25
EndSplineSet
Validated: 1
EndChar

StartChar: endash
Encoding: 8211 8211 76
Width: 1200
VWidth: 2048
Flags: W
HStem: 492 90<0 1200>
LayerCount: 4
Fore
SplineSet
0 492 m 25
 0 582 l 25
 1200 582 l 25
 1200 492 l 25
 0 492 l 25
EndSplineSet
Validated: 1
EndChar

StartChar: afii00208
Encoding: 8213 8213 77
Width: 1934
VWidth: 2048
Flags: W
HStem: 492 90<0 1934>
LayerCount: 4
Fore
SplineSet
0 492 m 25
 0 582 l 25
 1934 582 l 25
 1934 492 l 25
 0 492 l 25
EndSplineSet
Validated: 1
EndChar
